<?xml version="1.0" encoding="UTF-8" standalone="no"?>
<svg
   version="1.1"
   x="0px"
   y="0px"
   viewBox="0 0 24 24"
   enable-background="new 0 0 24 24"
   xml:space="preserve"
   id="svg10"
   sodipodi:docname="rotate.svg"
   inkscape:version="1.2.2 (732a01da63, 2022-12-09)"
   width="24"
   height="24"
   xmlns:inkscape="http://www.inkscape.org/namespaces/inkscape"
   xmlns:sodipodi="http://sodipodi.sourceforge.net/DTD/sodipodi-0.dtd"
   xmlns="http://www.w3.org/2000/svg"
   xmlns:svg="http://www.w3.org/2000/svg"><defs
     id="defs14" /><sodipodi:namedview
     id="namedview12"
     pagecolor="#ffffff"
     bordercolor="#000000"
     borderopacity="0.25"
     inkscape:showpageshadow="2"
     inkscape:pageopacity="0.0"
     inkscape:pagecheckerboard="0"
     inkscape:deskcolor="#d1d1d1"
     showgrid="false"
     inkscape:zoom="9.7698587"
     inkscape:cx="7.932561"
     inkscape:cy="12.692098"
     inkscape:window-width="1707"
     inkscape:window-height="937"
     inkscape:window-x="-8"
     inkscape:window-y="-8"
     inkscape:window-maximized="1"
     inkscape:current-layer="svg10" /><g
     id="g4"><path
       fill-rule="evenodd"
       clip-rule="evenodd"
       d="M 17.856,11.409 C 17.852,11.282 17.85,11.244 17.843,11.074 l -0.01,-0.195 c 0.001,0.02 -0.01,-0.159 -0.008,-0.14 l -0.004,-0.06 -1.214,0.08 v 0.004 c 0.005,0.071 0.009,0.137 0.013,0.209 0,-10e-4 0.025,0.732 0.025,0.731 l 0.001,0.025 -0.001,-0.01 0.001,0.029 v 0.021 -0.01 0.03 -0.009 0.03 -0.01 l 10e-4,0.035 -10e-4,-0.01 10e-4,0.04 v -0.01 0.045 -0.01 0.06 V 11.94 12 c 0,0.925 -0.066,1.891 -0.214,2.85 0.443,-0.125 0.877,-0.272 1.288,-0.444 0.097,-0.8 0.143,-1.604 0.143,-2.405 C 17.863,11.874 17.862,11.747 17.86,11.62 Z M 5.386,16.674 2,15.691 2.658,14.98 C 1.817,14.19 1.2,13.182 1.2,12 1.206,11.084 1.55,10.309 2.112,9.601 2.942,8.59 4.126,7.843 5.451,7.308 5.335,7.792 5.239,8.281 5.162,8.774 4.584,9.066 4.053,9.41 3.592,9.812 c -0.563,0.5 -1.035,1.118 -1.149,1.862 -0.076,0.5 0.027,0.975 0.259,1.417 0.197,0.374 0.478,0.711 0.782,0.995 L 4.141,13.375 Z M 9.6,6.283 C 10.44,6.18 11.256,6.135 12,6.135 c 1.765,0 3.552,0.222 5.246,0.722 2.32,0.685 5.537,2.332 5.554,5.143 -0.006,0.915 -0.349,1.69 -0.911,2.398 -2.151,2.622 -6.685,3.467 -9.889,3.467 -0.89,0 -1.822,-0.054 -2.697,-0.182 l 0.165,-1.205 c 0.82,0.12 1.699,0.17 2.533,0.17 2.71,0 6.298,-0.621 8.408,-2.46 C 21.053,13.616 21.576,12.891 21.584,12 21.571,10.545 20.174,9.484 19.01,8.866 16.924,7.773 14.333,7.351 12,7.351 11.116,7.351 10.138,7.417 9.148,7.57 9.275,7.128 9.425,6.697 9.6,6.283 Z m 5.624,12.551 C 15.71,18.758 16.199,18.665 16.683,18.551 15.833,20.614 14.309,22.786 12,22.8 11.084,22.794 10.309,22.451 9.601,21.889 6.979,19.737 6.135,15.204 6.135,12 6.135,10.236 6.357,8.448 6.857,6.754 7.542,4.434 9.189,1.217 12,1.2 c 1.454,0 2.627,0.926 3.466,2.038 L 16.244,2.661 16.854,6.132 13.71,4.539 14.488,3.962 C 13.907,3.175 13.023,2.417 12,2.417 10.545,2.43 9.484,3.828 8.866,4.992 7.773,7.076 7.351,9.667 7.351,12 c 0,2.71 0.621,6.298 2.461,8.408 0.572,0.644 1.296,1.167 2.188,1.175 1.455,-0.013 2.516,-1.41 3.134,-2.574 z"
       id="path2"
       style="fill:#740000;fill-opacity:1" /></g></svg>
